<svg preserveAspectRatio="none" width="100%" height="100%" overflow="visible" style="display: block;" viewBox="0 0 162.874 145.719" fill="none" xmlns="http://www.w3.org/2000/svg">
<path id="Vector" d="M14.6098 42.3683C5.13823 52.4413 -3.04732 66.2715 1.11016 79.4259C5.20293 92.3952 22.3424 99.3143 34.37 92.8619C42.4989 88.5012 47.2307 79.8845 53.6853 73.3193C60.1399 66.7542 71.1564 62.2568 78.339 68.0415C87.1554 75.1296 81.5016 89.5873 73.3969 97.4719C65.2923 105.357 54.5184 112.807 53.8875 124.062C53.1676 136.935 67.5247 146.533 80.4258 145.664C93.3269 144.796 104.481 136.726 114.454 128.536C129.523 116.17 144.026 102.492 153.36 85.4278C162.694 68.3633 166.301 47.3002 158.949 29.3025C135.5 -28.1504 43.8173 11.3208 14.6098 42.3683Z" fill="var(--fill-0, #F3CD03)"/>
</svg>
