<svg preserveAspectRatio="none" width="100%" height="100%" overflow="visible" style="display: block;" viewBox="0 0 115.69 274.794" fill="none" xmlns="http://www.w3.org/2000/svg">
<path id="Vector" d="M2.77437 274.794L0 273.603C9.04292 252.797 28.4391 239.386 47.1963 226.416C49.4071 224.888 51.6018 223.362 53.7803 221.838C71.0897 209.682 94.2713 190.525 95.7434 164.715C96.6654 148.544 89.1027 134.207 81.0951 119.025C75.9994 109.37 70.7338 99.3699 67.8462 88.8464C58.0187 52.9474 79.4693 12.3176 114.687 0L115.69 2.84003C82.5268 14.4497 61.4967 54.2508 70.7661 88.0177C73.5647 98.2274 78.7575 108.067 83.7724 117.593C91.6182 132.469 99.731 147.852 98.7604 164.852C97.2155 191.998 73.3464 211.773 55.5274 224.292C53.3705 225.826 51.1677 227.358 48.9191 228.886C30.5098 241.614 11.4695 254.777 2.77437 274.794Z" fill="var(--fill-0, white)"/>
</svg>
