<svg preserveAspectRatio="none" width="100%" height="100%" overflow="visible" style="display: block;" viewBox="0 0 488.002 452.455" fill="none" xmlns="http://www.w3.org/2000/svg">
<path id="Vector" d="M330.218 5.80405C370.522 12.7795 411.191 27.4544 439.242 57.0699C469.17 88.6807 481.019 133.237 485.646 176.425C490.167 218.664 488.744 262.005 476.425 302.667C464.106 343.329 440.302 381.255 405.788 406.309C355.551 442.827 289.686 448.363 227.502 451.203C192.301 452.812 156.736 453.946 122.093 447.526C87.4499 441.105 53.3408 426.455 29.4393 400.741C5.53788 375.028 -6.72427 337.126 3.79076 303.656C16.6514 262.455 59.4152 235.905 72.462 194.728C88.8977 142.883 55.5975 62.7259 116.609 31.0508C178.559 -1.09898 262.784 -5.88606 330.218 5.80405Z" fill="var(--fill-0, #273D5E)"/>
</svg>
